<?xml version="1.0" encoding="UTF-8"?>
<svg version="1.1" xmlns="http://www.w3.org/2000/svg" width="253" height="201" fill="#007832">
<path d="M0 0 C2.96446695 2.74954707 4.93457798 5.33203992 6.796875 8.9140625 C7.28027344 9.83960937 7.76367188 10.76515625 8.26171875 11.71875 C8.99841797 13.15734375 8.99841797 13.15734375 9.75 14.625 C10.25660156 15.59179688 10.76320312 16.55859375 11.28515625 17.5546875 C15 24.72403555 15 24.72403555 15 27 C15.66 27 16.32 27 17 27 C17.31710938 27.58523437 17.63421875 28.17046875 17.9609375 28.7734375 C19.29099147 31.22044287 20.6258295 33.66477364 21.96386719 36.10742188 C22.69993352 37.45190495 23.43483927 38.7970237 24.16894531 40.14257812 C30.49148273 51.76893435 30.49148273 51.76893435 37.6171875 62.91015625 C45 74.06779661 45 74.06779661 45 79 C15.63 79 -13.74 79 -44 79 C-44.33 78.34 -44.66 77.68 -45 77 C-43.77734375 74.78515625 -43.77734375 74.78515625 -41.9375 72.0625 C-38.97009618 67.54129811 -36.28218191 62.97758902 -33.7265625 58.21484375 C-23.42638097 39.03599895 -23.42638097 39.03599895 -18.3125 31.25 C-15.72741296 27.30274765 -13.55707892 23.24026448 -11.5 19 C-4.37096774 4.37096774 -4.37096774 4.37096774 0 0 Z " transform="translate(186,113)"/>
<path d="M0 0 C3 1 3 1 4.76171875 4.140625 C5.41146898 5.50672318 6.05285508 6.87681923 6.6875 8.25 C9.15095587 13.37974458 11.69360736 18.31389343 14.75 23.125 C19.07244056 29.94675273 22.88654142 37.01881325 26.70019531 44.13525391 C29.26624014 48.90454614 31.91034069 53.57082788 34.8190918 58.1394043 C36.72069559 61.13550156 38.52547164 64.18458513 40.3125 67.25 C40.67150391 67.848125 41.03050781 68.44625 41.40039062 69.0625 C43.34853105 72.41701228 44 74.01187617 44 78 C14.96 78 -14.08 78 -44 78 C-43.07241416 72.43448494 -42.30685258 70.39163776 -39.375 65.875 C-38.64075864 64.7234004 -37.90770867 63.57104042 -37.17578125 62.41796875 C-36.62398193 61.55631104 -36.62398193 61.55631104 -36.06103516 60.67724609 C-28.56116822 48.82172703 -21.95230454 36.33899167 -15.15942383 24.06860352 C-11.80227452 18.00837789 -8.4388048 11.95184117 -5 5.9375 C-4.46375 4.99777344 -3.9275 4.05804688 -3.375 3.08984375 C-2 1 -2 1 0 0 Z " transform="translate(61,114)"/>
<path d="M0 0 C0.99 0 1.98 0 3 0 C4.5390224 2.55303715 6.05595193 5.11539935 7.5625 7.6875 C8.00013672 8.40873047 8.43777344 9.12996094 8.88867188 9.87304688 C12.04983376 15.3241843 12.04983376 15.3241843 11.77734375 19.01953125 C11.52082031 19.67308594 11.26429688 20.32664062 11 21 C10.34 21 9.68 21 9 21 C9 23.64 9 26.28 9 29 C12.69418201 30.231394 15.2056261 29.64432764 19 29 C24.568 36.45714286 24.568 36.45714286 25.875 41.125 C24.67361398 45.0724112 22.41046867 46.65843256 19.2421875 49.1953125 C17.0462341 50.96278718 15.05480524 52.82019476 13.0625 54.8125 C12.49660156 55.37582031 11.93070313 55.93914063 11.34765625 56.51953125 C8.59653849 59.54177366 8.91402115 62.04497281 9 66 C10.64330947 66.89724685 10.64330947 66.89724685 13 67 C19.22385036 64.38598285 23.21091453 59.94106699 27.765625 55.046875 C30 53 30 53 33 53 C33 53.66 33 54.32 33 55 C33.66 55 34.32 55 35 55 C35.98753064 56.72440365 36.96468806 58.45475026 37.9375 60.1875 C38.48277344 61.15042969 39.02804688 62.11335938 39.58984375 63.10546875 C40.95443363 65.90646903 41.72051724 67.91105525 42 71 C40.8674469 72.81370544 40.8674469 72.81370544 39.08422852 74.50170898 C38.42346817 75.14264999 37.76270782 75.783591 37.08192444 76.44395447 C36.35492844 77.12116043 35.62793243 77.79836639 34.87890625 78.49609375 C34.14502182 79.20725845 33.41113739 79.91842316 32.65501404 80.65113831 C29.50980513 83.69809011 26.33057669 86.70866413 23.15405273 89.72290039 C20.84185406 91.92670361 18.54772657 94.14819348 16.25390625 96.37109375 C15.16644859 97.38386635 15.16644859 97.38386635 14.05702209 98.417099 C10.00049427 102.23679373 10.00049427 102.23679373 8.54663086 107.47680664 C8.77104858 108.72578735 8.77104858 108.72578735 9 110 C10.65 110.66 12.3 111.32 14 112 C19.03075847 107.71850343 23.77827013 103.28854909 28.3359375 98.50390625 C30 97 30 97 32 97 C31.44161409 101.42662452 29.80691456 104.1469555 27.3125 107.8125 C22.20883004 115.46747298 17.62766962 123.40632893 13.05004883 131.3840332 C5.05668068 145.24549001 5.05668068 145.24549001 2 149 C1.34 149 0.68 149 0 149 C0 99.83 0 50.66 0 0 Z " transform="translate(124,8)"/>
<path d="M0 0 C0.66 0 1.32 0 2 0 C2 46.86 2 93.72 2 142 C-2.5743073 139.71284635 -2.5743073 139.71284635 -4.375 136.125 C-4.91253906 135.10792969 -4.91253906 135.10792969 -5.4609375 134.0703125 C-6.17667017 131.32148411 -5.40488569 130.40433457 -4 128 C-3.1408667 126.01832817 -3.1408667 126.01832817 -3 124 C-5.28998469 119.87248727 -9.0386669 116.83378691 -12.875 114.1875 C-13.90625 113.465625 -14.9375 112.74375 -16 112 C-16 111.34 -16 110.68 -16 110 C-16.66 110 -17.32 110 -18 110 C-19.63513195 107.80260149 -21.1425014 105.61034498 -22.625 103.3125 C-23.0679541 102.63566162 -23.5109082 101.95882324 -23.96728516 101.26147461 C-41.14442246 74.88560123 -41.14442246 74.88560123 -40 69 C-38.6875 66.6875 -38.6875 66.6875 -37 65 C-34 65 -34 65 -32.4921875 66.46875 C-31.95851563 67.1390625 -31.42484375 67.809375 -30.875 68.5 C-27.50823206 72.54299911 -23.82236431 75.9308019 -19.8203125 79.3359375 C-18 81 -18 81 -17 83 C-15.17323569 83.85318539 -15.17323569 83.85318539 -13 84 C-10.78228936 83.14209817 -10.78228936 83.14209817 -9 82 C-8.89251333 76.65432969 -10.27533812 74.2855762 -13.96484375 70.4140625 C-15.60723298 68.80211239 -17.26540901 67.20611899 -18.9375 65.625 C-19.77474609 64.80644531 -20.61199219 63.98789063 -21.47460938 63.14453125 C-25.39496692 59.10967833 -25.39496692 59.10967833 -30 56 C-29.41453226 51.69602092 -27.86203906 48.70008149 -25.625 45 C-25.01914063 43.989375 -24.41328125 42.97875 -23.7890625 41.9375 C-23.19867188 40.968125 -22.60828125 39.99875 -22 39 C-20.99933421 37.33373299 -19.99909847 35.66720726 -19 34 C-16.61086117 34.53091974 -14.70645681 35.1467716 -12.5 36.25 C-11.675 36.4975 -10.85 36.745 -10 37 C-7.67488528 35.73647948 -7.67488528 35.73647948 -6 34 C-6.27489191 29.96825194 -6.53491576 28.43105369 -9.5625 25.625 C-10.366875 25.08875 -11.17125 24.5525 -12 24 C-10.58832286 17.50628516 -7.50154673 12.59175575 -4 7 C-2.64497117 4.67827377 -1.32278948 2.34031985 0 0 Z " transform="translate(119,11)"/>
<path d="M0 0 C0.99 0 1.98 0 3 0 C4.5390224 2.55303715 6.05595193 5.11539935 7.5625 7.6875 C8.00013672 8.40873047 8.43777344 9.12996094 8.88867188 9.87304688 C12.04983376 15.3241843 12.04983376 15.3241843 11.77734375 19.01953125 C11.52082031 19.67308594 11.26429688 20.32664062 11 21 C10.34 21 9.68 21 9 21 C9 23.64 9 26.28 9 29 C12.69418201 30.231394 15.2056261 29.64432764 19 29 C20.01131225 30.40861349 21.00866767 31.82725453 22 33.25 C22.556875 34.03890625 23.11375 34.8278125 23.6875 35.640625 C25 38 25 38 25 42 C24.34 42 23.68 42 23 42 C22.731875 41.195625 22.46375 40.39125 22.1875 39.5625 C21.795625 38.716875 21.40375 37.87125 21 37 C19.515 36.505 19.515 36.505 18 36 C18 35.01 18 34.02 18 33 C14.37 33 10.74 33 7 33 C5.97038242 27.85191212 6.2286833 25.05640946 7 20 C7.66 20 8.32 20 9 20 C8.40776866 18.37061226 7.80076372 16.74658872 7.1875 15.125 C6.85105469 14.22007813 6.51460937 13.31515625 6.16796875 12.3828125 C5.10350976 9.70574151 5.10350976 9.70574151 2 8 C2 41 2 74 2 108 C2.66 108 3.32 108 4 108 C4.2475 107.236875 4.495 106.47375 4.75 105.6875 C6.13067773 102.71904289 7.38750987 101.85402525 10 100 C10.33 99.01 10.66 98.02 11 97 C11.66 97 12.32 97 13 97 C13.33 96.01 13.66 95.02 14 94 C17.0625 92.8125 17.0625 92.8125 20 92 C19.10698344 93.06486855 18.2104053 94.12675041 17.3125 95.1875 C16.76980469 95.82945313 16.22710937 96.47140625 15.66796875 97.1328125 C14 99 14 99 11.125 101.5625 C8.68621586 103.88142 8.68621586 103.88142 8.6875 107.3125 C8.790625 108.199375 8.89375 109.08625 9 110 C10.65 110.66 12.3 111.32 14 112 C19.03075847 107.71850343 23.77827013 103.28854909 28.3359375 98.50390625 C30 97 30 97 32 97 C31.44161409 101.42662452 29.80691456 104.1469555 27.3125 107.8125 C22.20883004 115.46747298 17.62766962 123.40632893 13.05004883 131.3840332 C5.05668068 145.24549001 5.05668068 145.24549001 2 149 C1.34 149 0.68 149 0 149 C0 99.83 0 50.66 0 0 Z " transform="translate(124,8)"/>
<path d="M0 0 C2.96446695 2.74954707 4.93457798 5.33203992 6.796875 8.9140625 C7.28027344 9.83960937 7.76367188 10.76515625 8.26171875 11.71875 C8.99841797 13.15734375 8.99841797 13.15734375 9.75 14.625 C10.25660156 15.59179688 10.76320312 16.55859375 11.28515625 17.5546875 C15 24.72403555 15 24.72403555 15 27 C15.66 27 16.32 27 17 27 C17.31710938 27.58523437 17.63421875 28.17046875 17.9609375 28.7734375 C19.29099147 31.22044287 20.6258295 33.66477364 21.96386719 36.10742188 C22.69993352 37.45190495 23.43483927 38.7970237 24.16894531 40.14257812 C30.49148273 51.76893435 30.49148273 51.76893435 37.6171875 62.91015625 C45 74.06779661 45 74.06779661 45 79 C15.63 79 -13.74 79 -44 79 C-44.33 78.34 -44.66 77.68 -45 77 C-43.77734375 74.78515625 -43.77734375 74.78515625 -41.9375 72.0625 C-38.97009618 67.54129811 -36.28218191 62.97758902 -33.7265625 58.21484375 C-23.42638097 39.03599895 -23.42638097 39.03599895 -18.3125 31.25 C-15.72741296 27.30274765 -13.55707892 23.24026448 -11.5 19 C-4.37096774 4.37096774 -4.37096774 4.37096774 0 0 Z M0 4 C-4.6243856 10.94209675 -8.759897 18.20198404 -12.67578125 25.5625 C-13.62010866 27.30073099 -14.62481022 29.00671997 -15.66796875 30.6875 C-17.166377 32.84405873 -17.166377 32.84405873 -17 35 C-17.66 35 -18.32 35 -19 35 C-19 36.65 -19 38.3 -19 40 C-19.66 40 -20.32 40 -21 40 C-21.3403125 40.63164062 -21.680625 41.26328125 -22.03125 41.9140625 C-24.3564316 46.20575407 -26.69050883 50.48743029 -29.14453125 54.70703125 C-29.50417969 55.32690918 -29.86382812 55.94678711 -30.234375 56.58544922 C-30.94242333 57.80176593 -31.65454319 59.01572338 -32.37109375 60.22705078 C-34.04442994 63.10515608 -35.43995943 65.69657228 -36 69 C-36.66 69 -37.32 69 -38 69 C-39.4606285 71.64738916 -40 72.89448334 -40 76 C-13.27 76 13.46 76 41 76 C39.70639401 72.76598502 38.44092886 69.7671601 36.875 66.6875 C36.52179688 65.99011719 36.16859375 65.29273438 35.8046875 64.57421875 C35.40636719 63.79498047 35.40636719 63.79498047 35 63 C34.34 63 33.68 63 33 63 C32.65775391 61.49953125 32.65775391 61.49953125 32.30859375 59.96875 C31.04627274 55.55451224 28.70876895 52.20401281 26.0625 48.5 C22.72437279 43.78677817 20.18001628 39.35271856 18 34 C16.9790625 32.4840625 16.9790625 32.4840625 15.9375 30.9375 C13.99833651 27.99747793 12.96304951 25.37067328 12 22 C11.34 22 10.68 22 10 22 C9.74476563 21.31550781 9.48953125 20.63101563 9.2265625 19.92578125 C7.81150892 16.55038274 6.12741434 13.40025962 4.375 10.1875 C4.05015625 9.59001953 3.7253125 8.99253906 3.390625 8.37695312 C2.59620849 6.91662865 1.79844624 5.45812509 1 4 C0.67 4 0.34 4 0 4 Z " transform="translate(186,113)"/>
<path d="M0 0 C3 1 3 1 4.76171875 4.140625 C5.41146898 5.50672318 6.05285508 6.87681923 6.6875 8.25 C9.15095587 13.37974458 11.69360736 18.31389343 14.75 23.125 C19.07244056 29.94675273 22.88654142 37.01881325 26.70019531 44.13525391 C29.26624014 48.90454614 31.91034069 53.57082788 34.8190918 58.1394043 C36.72069559 61.13550156 38.52547164 64.18458513 40.3125 67.25 C40.67150391 67.848125 41.03050781 68.44625 41.40039062 69.0625 C43.34853105 72.41701228 44 74.01187617 44 78 C14.96 78 -14.08 78 -44 78 C-43.07241416 72.43448494 -42.30685258 70.39163776 -39.375 65.875 C-38.64075864 64.7234004 -37.90770867 63.57104042 -37.17578125 62.41796875 C-36.62398193 61.55631104 -36.62398193 61.55631104 -36.06103516 60.67724609 C-28.56116822 48.82172703 -21.95230454 36.33899167 -15.15942383 24.06860352 C-11.80227452 18.00837789 -8.4388048 11.95184117 -5 5.9375 C-4.46375 4.99777344 -3.9275 4.05804688 -3.375 3.08984375 C-2 1 -2 1 0 0 Z M-1 5 C-1.33 5.99 -1.66 6.98 -2 8 C-2.66 8 -3.32 8 -4 8 C-4.38478516 8.804375 -4.38478516 8.804375 -4.77734375 9.625 C-7.91954238 16.05751436 -11.36865539 22.27765128 -14.96459961 28.46484375 C-15.34237549 29.12355469 -15.72015137 29.78226563 -16.109375 30.4609375 C-16.44936523 31.04665527 -16.78935547 31.63237305 -17.13964844 32.23583984 C-18.06452152 34.13230208 -18.55819019 35.94179907 -19 38 C-19.66 38 -20.32 38 -21 38 C-21 38.99 -21 39.98 -21 41 C-21.66 41 -22.32 41 -23 41 C-24.81242323 45.0188515 -26.33501617 48.61110675 -27 53 C-27.66 53 -28.32 53 -29 53 C-30.36637653 54.71801282 -30.36637653 54.71801282 -31.625 56.875 C-32.07101563 57.59429687 -32.51703125 58.31359375 -32.9765625 59.0546875 C-34.15519998 60.92864762 -34.15519998 60.92864762 -34 63 C-34.66 63 -35.32 63 -36 63 C-36 64.32 -36 65.64 -36 67 C-36.66 67 -37.32 67 -38 67 C-38 68.32 -38 69.64 -38 71 C-38.66 71 -39.32 71 -40 71 C-40 72.32 -40 73.64 -40 75 C-13.27 75 13.46 75 41 75 C41 74.34 41 73.68 41 73 C40.34 73 39.68 73 39 73 C38.89429687 72.46117187 38.78859375 71.92234375 38.6796875 71.3671875 C37.83018777 68.40858499 36.5263846 65.86502063 35.125 63.125 C34.61195312 62.11695313 34.09890625 61.10890625 33.5703125 60.0703125 C33.05210938 59.05710938 32.53390625 58.04390625 32 57 C30.99815371 55.00092421 29.9976098 53.00119331 29 51 C28.34 51 27.68 51 27 51 C26.5978125 49.5459375 26.5978125 49.5459375 26.1875 48.0625 C25.795625 47.051875 25.40375 46.04125 25 45 C23.515 44.505 23.515 44.505 22 44 C21.9175 43.29875 21.835 42.5975 21.75 41.875 C20.82451185 38.32729543 19.05737852 36.02555664 17 33 C15.89503241 30.69721041 14.94949923 28.37374808 14 26 C13.34 26 12.68 26 12 26 C11.34 23.36 10.68 20.72 10 18 C9.34 18 8.68 18 8 18 C7.7525 17.34 7.505 16.68 7.25 16 C5.68182955 12.23639093 3.85494954 8.6288576 2 5 C1.01 5 0.02 5 -1 5 Z " transform="translate(61,114)"/>
<path d="M0 0 C0.99 0 1.98 0 3 0 C4.5390224 2.55303715 6.05595193 5.11539935 7.5625 7.6875 C8.00013672 8.40873047 8.43777344 9.12996094 8.88867188 9.87304688 C12.04983376 15.3241843 12.04983376 15.3241843 11.77734375 19.01953125 C11.52082031 19.67308594 11.26429688 20.32664062 11 21 C10.34 21 9.68 21 9 21 C9 23.64 9 26.28 9 29 C12.69418201 30.231394 15.2056261 29.64432764 19 29 C20.01131225 30.40861349 21.00866767 31.82725453 22 33.25 C22.556875 34.03890625 23.11375 34.8278125 23.6875 35.640625 C25 38 25 38 25 42 C24.34 42 23.68 42 23 42 C22.731875 41.195625 22.46375 40.39125 22.1875 39.5625 C21.795625 38.716875 21.40375 37.87125 21 37 C19.515 36.505 19.515 36.505 18 36 C18 35.01 18 34.02 18 33 C14.37 33 10.74 33 7 33 C5.97038242 27.85191212 6.2286833 25.05640946 7 20 C7.66 20 8.32 20 9 20 C8.40776866 18.37061226 7.80076372 16.74658872 7.1875 15.125 C6.85105469 14.22007813 6.51460937 13.31515625 6.16796875 12.3828125 C5.10350976 9.70574151 5.10350976 9.70574151 2 8 C2 52.88 2 97.76 2 144 C7.445 134.1 7.445 134.1 13 124 C13.66 123.01 14.32 122.02 15 121 C15.66 121 16.32 121 17 121 C17.66 118.69 18.32 116.38 19 114 C19.66 114 20.32 114 21 114 C21.2475 113.154375 21.495 112.30875 21.75 111.4375 C23.6515548 106.20822429 26.30199273 101.20228098 30 97 C30.66 97 31.32 97 32 97 C31.44161409 101.42662452 29.80691456 104.1469555 27.3125 107.8125 C22.20883004 115.46747298 17.62766962 123.40632893 13.05004883 131.3840332 C5.05668068 145.24549001 5.05668068 145.24549001 2 149 C1.34 149 0.68 149 0 149 C0 99.83 0 50.66 0 0 Z " transform="translate(124,8)"/>
<path d="M0 0 C0.66 0 1.32 0 2 0 C2 46.86 2 93.72 2 142 C-2.5743073 139.71284635 -2.5743073 139.71284635 -4.375 136.125 C-4.91253906 135.10792969 -4.91253906 135.10792969 -5.4609375 134.0703125 C-6.17667017 131.32148411 -5.40488569 130.40433457 -4 128 C-3.143052 126.03167096 -3.143052 126.03167096 -3 124 C-3.95125951 122.0169494 -3.95125951 122.0169494 -5.4375 120.25 C-5.91058594 119.63640625 -6.38367188 119.0228125 -6.87109375 118.390625 C-7.24363281 117.93171875 -7.61617188 117.4728125 -8 117 C-7.01 117 -6.02 117 -5 117 C-2.55723873 119.64632471 -0.99770679 121.63095163 -1.00390625 125.33203125 C-1.20526907 126.90979814 -1.44837082 128.48295451 -1.73828125 130.046875 C-2.19637497 132.07561945 -2.19637497 132.07561945 -1 134 C-0.17369409 126.42756019 0.11863513 118.9915059 0.02172852 111.37817383 C0.01212097 110.27441406 0.00251343 109.1706543 -0.00738525 108.03344727 C-0.04008007 104.42457085 -0.08052268 100.81582697 -0.12109375 97.20703125 C-0.14542379 94.68926953 -0.16926586 92.17150305 -0.19264221 89.6537323 C-0.24882002 83.72896119 -0.30987903 77.80425344 -0.37336355 71.87955731 C-0.45252555 64.46337338 -0.52400029 57.04711853 -0.59570312 49.63085938 C-0.72434531 36.42050731 -0.85974377 23.2102336 -1 10 C-1.66 10 -2.32 10 -3 10 C-3.103125 10.598125 -3.20625 11.19625 -3.3125 11.8125 C-4 14 -4 14 -5.4375 15.375 C-7.60132694 17.62538002 -8.14515602 20.04092468 -9 23 C-9.66 23 -10.32 23 -11 23 C-10.66622727 16.65831817 -7.28706314 12.20519974 -4 7 C-2.6436552 4.67896011 -1.32282703 2.34038628 0 0 Z " transform="translate(119,11)"/>
<path d="M0 0 C3 0 3 0 4.54296875 1.50390625 C5.08566406 2.18324219 5.62835938 2.86257812 6.1875 3.5625 C9.76515463 7.85109882 13.71231805 11.43621241 18 15 C17.30282168 19.40820043 16.19077314 20.90893852 13 24 C12.2127322 26.1381966 12.2127322 26.1381966 12 28 C12.66 28 13.32 28 14 28 C14.26554687 28.75925781 14.53109375 29.51851562 14.8046875 30.30078125 C15.15789062 31.29464844 15.51109375 32.28851563 15.875 33.3125 C16.22304687 34.29863281 16.57109375 35.28476563 16.9296875 36.30078125 C17.95305924 39.15594377 17.95305924 39.15594377 20 42 C19.01 42 18.02 42 17 42 C15.24947456 39.74028558 13.71104055 37.53129955 12.1875 35.125 C11.74390137 34.44042725 11.30030273 33.75585449 10.84326172 33.05053711 C9.54857457 31.04195485 8.27075262 29.02379122 7 27 C6.39027344 26.02933594 5.78054687 25.05867188 5.15234375 24.05859375 C-3.99385075 9.11123241 -3.99385075 9.11123241 -3 4 C-1.6875 1.6875 -1.6875 1.6875 0 0 Z " transform="translate(82,76)"/>
<path d="M0 0 C0.33 0.66 0.66 1.32 1 2 C0.67 2.66 0.34 3.32 0 4 C-0.66 4 -1.32 4 -2 4 C-2 4.99 -2 5.98 -2 7 C-2.66 7 -3.32 7 -4 7 C-4.103125 7.680625 -4.20625 8.36125 -4.3125 9.0625 C-5.14725019 12.62915989 -6.49472754 15.66222194 -8 19 C-8.66 19 -9.32 19 -10 19 C-10.268125 19.9075 -10.53625 20.815 -10.8125 21.75 C-11.90131632 24.72991834 -12.86391101 26.68590359 -15 29 C-15.66 29 -16.32 29 -17 29 C-17 30.32 -17 31.64 -17 33 C-17.66 33 -18.32 33 -19 33 C-19 34.32 -19 35.64 -19 37 C-19.66 37 -20.32 37 -21 37 C-21 38.32 -21 39.64 -21 41 C6.06 40.67 33.12 40.34 61 40 C61 40.99 61 41.98 61 43 C33.28 43 5.56 43 -23 43 C-23 37.25357694 -22.92095871 36.11986353 -20.18359375 31.5859375 C-19.58353516 30.57660156 -18.98347656 29.56726563 -18.36523438 28.52734375 C-17.72908203 27.48707031 -17.09292969 26.44679687 -16.4375 25.375 C-15.82841797 24.35792969 -15.21933594 23.34085938 -14.59179688 22.29296875 C-13.36131154 20.23825355 -12.12480986 18.18712936 -10.88232422 16.13964844 C-8.33832423 11.89634884 -5.89792648 7.59543543 -3.46508789 3.28759766 C-2 1 -2 1 0 0 Z " transform="translate(42,148)"/>
<path d="M0 0 C0.33 0 0.66 0 1 0 C1 9.24 1 18.48 1 28 C-0.32 27.67 -1.64 27.34 -3 27 C-3 27.99 -3 28.98 -3 30 C-9.37952339 33.06707855 -9.37952339 33.06707855 -12.3125 32.75 C-13.55579711 32.19742351 -14.78307651 31.60846174 -16 31 C-16 31.66 -16 32.32 -16 33 C-16.99 33 -17.98 33 -19 33 C-19.268125 33.72703125 -19.53625 34.4540625 -19.8125 35.203125 C-20.98330106 37.9606696 -22.33312474 40.26635586 -24 42.75 C-24.7734375 43.91789062 -24.7734375 43.91789062 -25.5625 45.109375 C-27 47 -27 47 -29 48 C-28.3260628 44.20227283 -26.59093189 41.35149576 -24.625 38.0625 C-24.01914063 37.04285156 -23.41328125 36.02320313 -22.7890625 34.97265625 C-22.19867188 33.99167969 -21.60828125 33.01070312 -21 32 C-20.14535156 30.57494141 -20.14535156 30.57494141 -19.2734375 29.12109375 C-18.85320312 28.42113281 -18.43296875 27.72117187 -18 27 C-15.61086117 27.53091974 -13.70645681 28.1467716 -11.5 29.25 C-10.675 29.4975 -9.85 29.745 -9 30 C-6.67488528 28.73647948 -6.67488528 28.73647948 -5 27 C-5.27489191 22.96825194 -5.53491576 21.43105369 -8.5625 18.625 C-9.366875 18.08875 -10.17125 17.5525 -11 17 C-10.67 16.34 -10.34 15.68 -10 15 C-9.34 15.33 -8.68 15.66 -8 16 C-7.9175 15.0925 -7.835 14.185 -7.75 13.25 C-6.89440357 9.54241549 -5.75605229 8.49767239 -3 6 C-2.67 5.01 -2.34 4.02 -2 3 C-1.34 3 -0.68 3 0 3 C0 2.01 0 1.02 0 0 Z " transform="translate(118,18)"/>
<path d="M0 0 C0.66 0.33 1.32 0.66 2 1 C1.05065487 2.67180274 0.09026687 4.33733936 -0.875 6 C-1.40867188 6.928125 -1.94234375 7.85625 -2.4921875 8.8125 C-2.98976562 9.534375 -3.48734375 10.25625 -4 11 C-4.66 11 -5.32 11 -6 11 C-6 12.65 -6 14.3 -6 16 C-6.66 16 -7.32 16 -8 16 C-8.12600586 16.59151855 -8.25201172 17.18303711 -8.38183594 17.79248047 C-9.34904012 21.24645369 -11.36570563 24.10672023 -13.25 27.125 C-16.81996389 32.94437465 -20.10201659 38.81083946 -23 45 C-23.66 45 -24.32 45 -25 45 C-25.66 47.31 -26.32 49.62 -27 52 C-0.27 52 26.46 52 54 52 C54 52.33 54 52.66 54 53 C12.42 53.495 12.42 53.495 -30 54 C-27.75862306 45.03449225 -27.75862306 45.03449225 -25.27734375 41.21484375 C-23.0293489 37.64682523 -20.87264436 34.06144752 -18.81640625 30.37890625 C-18.28080078 29.42306641 -17.74519531 28.46722656 -17.19335938 27.48242188 C-16.10871134 25.54044725 -15.02537121 23.59774154 -13.94335938 21.65429688 C-4.09180886 4.09180886 -4.09180886 4.09180886 0 0 Z " transform="translate(173,137)"/>
<path d="M0 0 C0.33 0 0.66 0 1 0 C1.74410188 28.33919938 2.1520995 56.65099407 2 85 C-1.31240424 83.46658892 -2.7178458 82.42684859 -4.375 79.125 C-4.73335938 78.44695312 -5.09171875 77.76890625 -5.4609375 77.0703125 C-6.17667017 74.32148411 -5.40488569 73.40433457 -4 71 C-3.143052 69.03167096 -3.143052 69.03167096 -3 67 C-3.95125951 65.0169494 -3.95125951 65.0169494 -5.4375 63.25 C-5.91058594 62.63640625 -6.38367188 62.0228125 -6.87109375 61.390625 C-7.24363281 60.93171875 -7.61617188 60.4728125 -8 60 C-7.01 60 -6.02 60 -5 60 C-2.55723873 62.64632471 -0.99770679 64.63095163 -1.00390625 68.33203125 C-1.20526907 69.90979814 -1.44837082 71.48295451 -1.73828125 73.046875 C-2.19637497 75.07561945 -2.19637497 75.07561945 -1 77 C0.02304858 68.15810818 0.13141022 59.37538433 0.09765625 50.48828125 C0.09578648 49.02426706 0.09436523 47.56025223 0.09336853 46.09623718 C0.08958729 42.28067231 0.07979562 38.46514673 0.06866455 34.64959717 C0.0583549 30.74101289 0.05385063 26.83242214 0.04882812 22.92382812 C0.03816849 15.28253435 0.02114624 7.64127272 0 0 Z " transform="translate(119,68)"/>
<path d="M0 0 C0.66 0 1.32 0 2 0 C1.44161409 4.42662452 -0.19308544 7.1469555 -2.6875 10.8125 C-7.79116996 18.46747298 -12.37233038 26.40632893 -16.94995117 34.3840332 C-24.94331932 48.24549001 -24.94331932 48.24549001 -28 52 C-28.66 52 -29.32 52 -30 52 C-28.67556904 48.02670713 -26.71184885 44.50445828 -24.75 40.8125 C-24.17572266 39.71711914 -24.17572266 39.71711914 -23.58984375 38.59960938 C-17.67625821 27.43499721 -17.67625821 27.43499721 -15 24 C-14.34 24 -13.68 24 -13 24 C-12.01 20.535 -12.01 20.535 -11 17 C-10.34 17 -9.68 17 -9 17 C-8.7525 16.154375 -8.505 15.30875 -8.25 14.4375 C-6.3484452 9.20822429 -3.69800727 4.20228098 0 0 Z " transform="translate(154,105)"/>
<path d="M0 0 C0.99 0 1.98 0 3 0 C4.5390224 2.55303715 6.05595193 5.11539935 7.5625 7.6875 C8.00013672 8.40873047 8.43777344 9.12996094 8.88867188 9.87304688 C12.04983376 15.3241843 12.04983376 15.3241843 11.77734375 19.01953125 C11.52082031 19.67308594 11.26429688 20.32664062 11 21 C10.34 21 9.68 21 9 21 C9 23.64 9 26.28 9 29 C12.69418201 30.231394 15.2056261 29.64432764 19 29 C20.01131225 30.40861349 21.00866767 31.82725453 22 33.25 C22.556875 34.03890625 23.11375 34.8278125 23.6875 35.640625 C25 38 25 38 25 42 C24.34 42 23.68 42 23 42 C22.731875 41.195625 22.46375 40.39125 22.1875 39.5625 C21.795625 38.716875 21.40375 37.87125 21 37 C19.515 36.505 19.515 36.505 18 36 C18 35.01 18 34.02 18 33 C14.37 33 10.74 33 7 33 C5.97038242 27.85191212 6.2286833 25.05640946 7 20 C7.66 20 8.32 20 9 20 C6.73583341 14.01441066 4.25801121 8.50491549 1 3 C0.67 2.01 0.34 1.02 0 0 Z " transform="translate(124,8)"/>
<path d="M0 0 C1.39746302 4.19238905 -0.15968125 6.10701803 -2 10 C-2.33 10.66 -2.66 11.32 -3 12 C21.75 12 46.5 12 72 12 C72.33 10.68 72.66 9.36 73 8 C73.99 10.475 73.99 10.475 75 13 C48.27 13 21.54 13 -6 13 C-5 8 -5 8 -4 6 C-3.34 6 -2.68 6 -2 6 C-1.855625 5.38125 -1.71125 4.7625 -1.5625 4.125 C-1 2 -1 2 0 0 Z " transform="translate(152,176)"/>
<path d="M0 0 C0.66 0 1.32 0 2 0 C1 4 1 4 0.35668945 5.91064453 C-0.0890288 8.52149793 0.40959503 9.41729238 1.73046875 11.6796875 C2.12169922 12.36160156 2.51292969 13.04351562 2.91601562 13.74609375 C3.33560547 14.44863281 3.75519531 15.15117188 4.1875 15.875 C4.78788086 16.91720703 4.78788086 16.91720703 5.40039062 17.98046875 C7.78866366 22.09124016 10.34401691 26.0557516 13 30 C13.70387626 31.17786701 14.39514112 32.36356521 15.0625 33.5625 C16.66459796 36.40493187 18.30907983 39.20998171 20 42 C19.01 42 18.02 42 17 42 C15.24947456 39.74028558 13.71104055 37.53129955 12.1875 35.125 C11.74390137 34.44042725 11.30030273 33.75585449 10.84326172 33.05053711 C9.54857457 31.04195485 8.27075262 29.02379122 7 27 C6.39027344 26.02933594 5.78054687 25.05867188 5.15234375 24.05859375 C-3.99385075 9.11123241 -3.99385075 9.11123241 -3 4 C-1.625 1.6875 -1.625 1.6875 0 0 Z " transform="translate(82,76)"/>
<path d="M0 0 C3 1 3 1 4.25 2.8125 C5.11637742 5.33943414 4.88492145 6.52221994 4 9 C3.34 7.68 2.68 6.36 2 5 C-1.11785113 5.64644661 -1.11785113 5.64644661 -2 8 C-2.66 8 -3.32 8 -4 8 C-4.185625 8.928125 -4.37125 9.85625 -4.5625 10.8125 C-5.88409606 15.50939533 -8.57940333 19.24080377 -11.2578125 23.26953125 C-12.79369703 25.67666866 -14.05220821 28.03906966 -15.25 30.625 C-17 34 -17 34 -20 35 C-18.70994531 30.74045965 -17.0829454 27.12794609 -14.8125 23.3046875 C-14.19632813 22.25925781 -13.58015625 21.21382812 -12.9453125 20.13671875 C-12.30335937 19.06035156 -11.66140625 17.98398438 -11 16.875 C-9.72815319 14.72716231 -8.45727887 12.57874838 -7.1875 10.4296875 C-6.62417969 9.48335449 -6.06085937 8.53702148 -5.48046875 7.56201172 C-4.00049875 5.08272179 -4.00049875 5.08272179 -2.92578125 2.72314453 C-2 1 -2 1 0 0 Z " transform="translate(61,114)"/>
<path d="M0 0 C0.33 1.32 0.66 2.64 1 4 C28.72 4.33 56.44 4.66 85 5 C85 3.35 85 1.7 85 0 C86.5 1.3125 86.5 1.3125 88 3 C88 3.99 88 4.98 88 6 C58.63 6 29.26 6 -1 6 C-1.33 5.34 -1.66 4.68 -2 4 C-1.0625 1.875 -1.0625 1.875 0 0 Z " transform="translate(143,186)"/>
<path d="M0 0 C0.66 0.33 1.32 0.66 2 1 C2 2.32 2 3.64 2 5 C1.01 5 0.02 5 -1 5 C-0.67 6.65 -0.34 8.3 0 10 C25.41 10 50.82 10 77 10 C77 10.66 77 11.32 77 12 C50.27 12 23.54 12 -4 12 C-4 10.68 -4 9.36 -4 8 C-3.34 8 -2.68 8 -2 8 C-2 6.68 -2 5.36 -2 4 C-1.34 4 -0.68 4 0 4 C0 2.68 0 1.36 0 0 Z " transform="translate(25,177)"/>
<path d="M0 0 C0 0.66 0 1.32 0 2 C0.66 2 1.32 2 2 2 C2.98753064 3.72440365 3.96468806 5.45475026 4.9375 7.1875 C5.75541016 8.63189453 5.75541016 8.63189453 6.58984375 10.10546875 C7.90579333 12.80662842 8.57301887 15.04356101 9 18 C8.34 18.33 7.68 18.66 7 19 C6.60167969 18.44570312 6.20335937 17.89140625 5.79296875 17.3203125 C5.26316406 16.59585938 4.73335937 15.87140625 4.1875 15.125 C3.66542969 14.40570313 3.14335937 13.68640625 2.60546875 12.9453125 C0.96727223 10.76971345 0.96727223 10.76971345 -2 9 C-2.75 7 -2.75 7 -3 5 C-2.67 4.34 -2.34 3.68 -2 3 C-4.31 4.98 -6.62 6.96 -9 9 C-9.66 8.67 -10.32 8.34 -11 8 C-9.73861805 6.65772182 -8.46555441 5.32641323 -7.1875 4 C-6.47980469 3.2575 -5.77210938 2.515 -5.04296875 1.75 C-3 0 -3 0 0 0 Z " transform="translate(157,61)"/>
<path d="M0 0 C3.32643967 2.98232523 5.29152862 5.86370087 7 10 C6.67 10.66 6.34 11.32 6 12 C3.72239994 9.83085709 1.86501577 7.52848076 0 5 C-1.0837413 6.85392824 -2.16697162 8.70815519 -3.25 10.5625 C-3.889375 11.65304688 -4.52875 12.74359375 -5.1875 13.8671875 C-6.58809579 16.28804489 -7.93005847 18.72292167 -9.25 21.1875 C-11 24 -11 24 -14 25 C-12.20846739 19.98167285 -9.59035949 15.44924348 -7 10.8125 C-6.54882812 9.99330078 -6.09765625 9.17410156 -5.6328125 8.33007812 C-4.97925781 7.15541992 -4.97925781 7.15541992 -4.3125 5.95703125 C-3.71888672 4.88932495 -3.71888672 4.88932495 -3.11328125 3.80004883 C-2 2 -2 2 0 0 Z " transform="translate(186,113)"/>
<path d="M0 0 C0.70382813 0.721875 1.40765625 1.44375 2.1328125 2.1875 C5.81771313 5.88020212 9.86629738 9.15721975 13.8671875 12.5 C16 15 16 15 15.8203125 17.8125 C15.41425781 18.8953125 15.41425781 18.8953125 15 20 C11.39986155 16.59986924 8.67818358 13.1558021 6 9 C3.8614515 6.8614515 2.86724686 6.57344937 0 6 C-0.66 7.32 -1.32 8.64 -2 10 C-2.6875 8.375 -2.6875 8.375 -3 6 C-1.5625 2.75 -1.5625 2.75 0 0 Z " transform="translate(84,76)"/>
<path d="M0 0 C0.66 0.66 1.32 1.32 2 2 C1.175 2.86625 0.35 3.7325 -0.5 4.625 C-2.65865899 7.17890641 -2.9876294 7.86639751 -3.3125 11.375 C-3.209375 12.24125 -3.10625 13.1075 -3 14 C0.05263664 14.98120464 1.94736336 14.98120464 5 14 C5 15.32 5 16.64 5 18 C0.62835032 18.77146759 -2.68903724 19.00514676 -7 18 C-6.91245449 16.24908981 -6.80426627 14.49920449 -6.6875 12.75 C-6.62949219 11.77546875 -6.57148438 10.8009375 -6.51171875 9.796875 C-5.9490829 6.72170503 -5.15665346 5.23652952 -3 3 C-2.34 3 -1.68 3 -1 3 C-0.67 2.01 -0.34 1.02 0 0 Z " transform="translate(136,60)"/>
<path d="M0 0 C0.66 0 1.32 0 2 0 C2 1.98 2 3.96 2 6 C1.01 6 0.02 6 -1 6 C-1 7.32 -1 8.64 -1 10 C-1.66 10 -2.32 10 -3 10 C-3.103125 10.598125 -3.20625 11.19625 -3.3125 11.8125 C-4 14 -4 14 -5.4375 15.375 C-7.60132694 17.62538002 -8.14515602 20.04092468 -9 23 C-9.66 23 -10.32 23 -11 23 C-10.66622727 16.65831817 -7.28706314 12.20519974 -4 7 C-2.6436552 4.67896011 -1.32282703 2.34038628 0 0 Z " transform="translate(119,11)"/>
<path d="M0 0 C0.66 0.33 1.32 0.66 2 1 C1.05065487 2.67180274 0.09026687 4.33733936 -0.875 6 C-1.40867188 6.928125 -1.94234375 7.85625 -2.4921875 8.8125 C-2.98976562 9.534375 -3.48734375 10.25625 -4 11 C-4.66 11 -5.32 11 -6 11 C-6 12.65 -6 14.3 -6 16 C-6.66 16 -7.32 16 -8 16 C-8.0825 16.556875 -8.165 17.11375 -8.25 17.6875 C-9.22610013 20.69714206 -10.95188814 22.62154752 -13 25 C-12.59952156 18.76397865 -10.47290665 14.84855017 -7.0625 9.6875 C-6.60681641 8.97271484 -6.15113281 8.25792969 -5.68164062 7.52148438 C-3.91537664 4.77769802 -2.31411446 2.31411446 0 0 Z " transform="translate(173,137)"/>
<path d="M0 0 C4 4.75 4 4.75 4 7 C3.01 7 2.02 7 1 7 C1 6.01 1 5.02 1 4 C0.3503125 5.3921875 0.3503125 5.3921875 -0.3125 6.8125 C-1.77359792 9.57235162 -2.87545859 10.87545859 -5 13 C-5.33 13.86625 -5.66 14.7325 -6 15.625 C-6.33 16.40875 -6.66 17.1925 -7 18 C-7.99 18.33 -8.98 18.66 -10 19 C-8.62394084 14.23448987 -6.53221934 10.2751447 -3.875 6.125 C-3.50246094 5.53203125 -3.12992188 4.9390625 -2.74609375 4.328125 C-1.83635 2.8818657 -0.91896202 1.44041954 0 0 Z " transform="translate(186,117)"/>
<path d="M0 0 C0.66 0.33 1.32 0.66 2 1 C0.88407791 3.00507927 -0.24298712 5.00396096 -1.375 7 C-2.31472656 8.670625 -2.31472656 8.670625 -3.2734375 10.375 C-3.84320313 11.24125 -4.41296875 12.1075 -5 13 C-5.66 13 -6.32 13 -7 13 C-7.12375 13.78375 -7.2475 14.5675 -7.375 15.375 C-8 18 -8 18 -10 20 C-9.67 17.36 -9.34 14.72 -9 12 C-9.66 11.67 -10.32 11.34 -11 11 C-7.37 7.37 -3.74 3.74 0 0 Z " transform="translate(150,109)"/>
<path d="M0 0 C0.66 0 1.32 0 2 0 C1.30970195 4.11087943 -0.77171084 7.4957487 -2.8125 11.0625 C-3.15603516 11.68705078 -3.49957031 12.31160156 -3.85351562 12.95507812 C-5.82053922 16.41305393 -7.58594043 18.90553199 -11 21 C-10.3260628 17.20227283 -8.59093189 14.35149576 -6.625 11.0625 C-6.01914063 10.04285156 -5.41328125 9.02320313 -4.7890625 7.97265625 C-4.19867188 6.99167969 -3.60828125 6.01070312 -3 5 C-2.20722656 3.57494141 -2.20722656 3.57494141 -1.3984375 2.12109375 C-0.93695313 1.42113281 -0.47546875 0.72117188 0 0 Z " transform="translate(100,45)"/>
<path d="M0 0 C0.66 0.33 1.32 0.66 2 1 C1.2059375 1.72445312 0.411875 2.44890625 -0.40625 3.1953125 C-1.43828035 4.17105029 -2.46948769 5.14765909 -3.5 6.125 C-4.02464844 6.599375 -4.54929688 7.07375 -5.08984375 7.5625 C-7.82054173 10.18680715 -8.95326915 11.54225005 -9.34375 15.3671875 C-9.2303125 16.23601562 -9.116875 17.10484375 -9 18 C-7.7934375 18.433125 -7.7934375 18.433125 -6.5625 18.875 C-4 20 -4 20 -3 22 C-5.31 22 -7.62 22 -10 22 C-10.92556607 19.22330178 -11.19295491 17.32303105 -11.25 14.4375 C-11.27578125 13.65246094 -11.3015625 12.86742188 -11.328125 12.05859375 C-11.21984375 11.37925781 -11.1115625 10.69992188 -11 10 C-10.01 9.34 -9.02 8.68 -8 8 C-7.67 7.01 -7.34 6.02 -7 5 C-6.34 5 -5.68 5 -5 5 C-4.67 4.01 -4.34 3.02 -4 2 C-2.0625 0.75 -2.0625 0.75 0 0 Z " transform="translate(142,100)"/>
<path d="M0 0 C0.99 0 1.98 0 3 0 C4.50787377 2.59988552 6.00645461 5.20440197 7.5 7.8125 C8.14388672 8.91948242 8.14388672 8.91948242 8.80078125 10.04882812 C9.20683594 10.76103516 9.61289063 11.47324219 10.03125 12.20703125 C10.40830078 12.8616333 10.78535156 13.51623535 11.17382812 14.19067383 C12 16 12 16 12 19 C11.01 19 10.02 19 9 19 C8.60167969 18.18015625 8.20335937 17.3603125 7.79296875 16.515625 C7.26316406 15.43796875 6.73335937 14.3603125 6.1875 13.25 C5.66542969 12.18265625 5.14335937 11.1153125 4.60546875 10.015625 C3.129829 7.04154809 3.129829 7.04154809 1.30078125 4.796875 C0 3 0 3 0 0 Z " transform="translate(124,8)"/>
<path d="M0 0 C0.33 0.66 0.66 1.32 1 2 C0.67 2.66 0.34 3.32 0 4 C-0.66 4 -1.32 4 -2 4 C-2 4.99 -2 5.98 -2 7 C-2.66 7 -3.32 7 -4 7 C-4.103125 7.680625 -4.20625 8.36125 -4.3125 9.0625 C-5.14725019 12.62915989 -6.49472754 15.66222194 -8 19 C-8.66 19 -9.32 19 -10 19 C-10.33 19.99 -10.66 20.98 -11 22 C-11.86185487 19.59789455 -12.16261078 18.42063016 -11.22729492 16.0012207 C-10.61011597 14.97387817 -10.61011597 14.97387817 -9.98046875 13.92578125 C-9.53509766 13.17619141 -9.08972656 12.42660156 -8.63085938 11.65429688 C-8.15455078 10.88150391 -7.67824219 10.10871094 -7.1875 9.3125 C-6.72279297 8.52810547 -6.25808594 7.74371094 -5.77929688 6.93554688 C-2.29136712 1.14568356 -2.29136712 1.14568356 0 0 Z " transform="translate(42,148)"/>
<path d="M0 0 C2.9719385 1.12451727 5.33440687 2.22293791 8 4 C8.33 4.99 8.66 5.98 9 7 C9.66 7.33 10.32 7.66 11 8 C11.48514851 14.30693069 11.48514851 14.30693069 9.25 17.5 C7 19 7 19 4.75 18.75 C4.1725 18.5025 3.595 18.255 3 18 C4.65 17.01 6.3 16.02 8 15 C7.89652434 9.92969283 7.11451337 7.70564004 3.4375 4.125 C2.79683594 3.55007812 2.15617187 2.97515625 1.49609375 2.3828125 C1.00238281 1.92648438 0.50867188 1.47015625 0 1 C0 0.67 0 0.34 0 0 Z " transform="translate(102,78)"/>
<path d="M0 0 C0.99 0.33 1.98 0.66 3 1 C3 3.97 3 6.94 3 10 C-3.37952339 13.06707855 -3.37952339 13.06707855 -6.3125 12.75 C-7.55579711 12.19742351 -8.78307651 11.60846174 -10 11 C-10 11.66 -10 12.32 -10 13 C-10.66 13 -11.32 13 -12 13 C-11.34 11.02 -10.68 9.04 -10 7 C-6.535 8.485 -6.535 8.485 -3 10 C-1.68 9.01 -0.36 8.02 1 7 C0.67 4.69 0.34 2.38 0 0 Z " transform="translate(112,38)"/>
<path d="M0 0 C0.33 1.32 0.66 2.64 1 4 C0.01 4.495 0.01 4.495 -1 5 C-1 5.66 -1 6.32 -1 7 C-1.66 7 -2.32 7 -3 7 C-3 8.32 -3 9.64 -3 11 C-3.66 11 -4.32 11 -5 11 C-5 12.32 -5 13.64 -5 15 C-4.34 15 -3.68 15 -3 15 C-3 16.98 -3 18.96 -3 21 C-5.31 19.35 -7.62 17.7 -10 16 C-9.278125 15.030625 -8.55625 14.06125 -7.8125 13.0625 C-4.83333116 8.90868745 -2.40109705 4.5058885 0 0 Z " transform="translate(99,51)"/>
<path d="M0 0 C0.52849741 5.28497409 0.52849741 5.28497409 0 8 C-3 10.5 -3 10.5 -6 12 C-6.66 11.34 -7.32 10.68 -8 10 C-3.45454545 0 -3.45454545 0 0 0 Z " transform="translate(119,23)"/>
<path d="M0 0 C0.66 0 1.32 0 2 0 C1.41190166 3.98042168 0.17968323 6.86247219 -1.875 10.3125 C-2.38804687 11.19550781 -2.90109375 12.07851562 -3.4296875 12.98828125 C-3.94789063 13.65214844 -4.46609375 14.31601563 -5 15 C-5.99 15 -6.98 15 -8 15 C-5.9651746 9.67814896 -3.8133759 4.31077275 0 0 Z " transform="translate(154,105)"/>
<path d="M0 0 C0.33 0 0.66 0 1 0 C1.25532751 3.06393013 1.21861333 4.63233212 -0.375 7.3125 C-0.91125 7.869375 -1.4475 8.42625 -2 9 C-2.66 9 -3.32 9 -4 9 C-4 10.32 -4 11.64 -4 13 C-4.66 13 -5.32 13 -6 13 C-6 14.32 -6 15.64 -6 17 C-6.66 17.33 -7.32 17.66 -8 18 C-9.13350534 20.01669827 -9.13350534 20.01669827 -10 22 C-9.56278825 15.99614581 -7.697492 12.1062219 -4.5 7.0625 C-4.08363281 6.37865234 -3.66726562 5.69480469 -3.23828125 4.99023438 C-2.19657684 3.30294293 -1.10287904 1.6479558 0 0 Z " transform="translate(29,168)"/>
<path d="M0 0 C0.99 0.33 1.98 0.66 3 1 C-0.63 4.63 -4.26 8.26 -8 12 C-8.33 11.34 -8.66 10.68 -9 10 C-8.1875 8.125 -8.1875 8.125 -7 6 C-6.62875 5.2575 -6.2575 4.515 -5.875 3.75 C-5.58625 3.1725 -5.2975 2.595 -5 2 C-3.35 2 -1.7 2 0 2 C0 1.34 0 0.68 0 0 Z " transform="translate(161,80)"/>
<path d="M0 0 C0.33 0 0.66 0 1 0 C1.3125 2.1875 1.3125 2.1875 1 5 C-0.66666667 6.66666667 -2.33333333 8.33333333 -4 10 C-4.69730806 12.3243602 -5.36912152 14.65673706 -6 17 C-6.99 17.33 -7.98 17.66 -9 18 C-9.66 17.67 -10.32 17.34 -11 17 C-10.67 16.34 -10.34 15.68 -10 15 C-9.34 15.33 -8.68 15.66 -8 16 C-7.9175 15.0925 -7.835 14.185 -7.75 13.25 C-6.89440357 9.54241549 -5.75605229 8.49767239 -3 6 C-2.67 5.01 -2.34 4.02 -2 3 C-1.34 3 -0.68 3 0 3 C0 2.01 0 1.02 0 0 Z " transform="translate(118,18)"/>
<path d="M0 0 C3.32643967 2.98232523 5.29152862 5.86370087 7 10 C6.67 10.66 6.34 11.32 6 12 C4.2898442 10.37128019 2.86650942 8.81088835 1.5 6.875 C0.05041536 4.71499886 0.05041536 4.71499886 -3 4 C-2.01 2.68 -1.02 1.36 0 0 Z " transform="translate(186,113)"/>
<path d="M0 0 C0.33 0.66 0.66 1.32 1 2 C1.66 2 2.32 2 3 2 C4.98 5.96 6.96 9.92 9 14 C7.68 13.67 6.36 13.34 5 13 C4.67 11.35 4.34 9.7 4 8 C3.34 8 2.68 8 2 8 C1.01 5.69 0.02 3.38 -1 1 C-0.67 0.67 -0.34 0.34 0 0 Z " transform="translate(156,61)"/>
<path d="M0 0 C5.14770554 2.49940249 5.14770554 2.49940249 7 5 C7.1875 7.6875 7.1875 7.6875 7 10 C7.66 10 8.32 10 9 10 C9.66 11.98 10.32 13.96 11 16 C5.79300147 11.55873655 3.07881795 6.04125446 0 0 Z " transform="translate(87,94)"/>
<path d="M0 0 C0.66 0.33 1.32 0.66 2 1 C2 2.32 2 3.64 2 5 C1.01 5 0.02 5 -1 5 C-0.67 6.65 -0.34 8.3 0 10 C2.64 10.33 5.28 10.66 8 11 C8 11.33 8 11.66 8 12 C4.04 12 0.08 12 -4 12 C-4 10.68 -4 9.36 -4 8 C-3.34 8 -2.68 8 -2 8 C-2 6.68 -2 5.36 -2 4 C-1.34 4 -0.68 4 0 4 C0 2.68 0 1.36 0 0 Z " transform="translate(25,177)"/>
<path d="M0 0 C0.33 0 0.66 0 1 0 C1 8.91 1 17.82 1 27 C-0.32 26.34 -1.64 25.68 -3 25 C-2.67 24.34 -2.34 23.68 -2 23 C-1.34 23.33 -0.68 23.66 0 24 C0 16.08 0 8.16 0 0 Z " transform="translate(120,126)"/>
<path d="M0 0 C4.48148494 2.18018186 6.21849541 4.34829356 8 9 C7.67 9.66 7.34 10.32 7 11 C5.5 9.625 5.5 9.625 4 8 C4 7.34 4 6.68 4 6 C3.01 6 2.02 6 1 6 C0.67 4.02 0.34 2.04 0 0 Z " transform="translate(125,15)"/>
<path d="M0 0 C1.5 1.3125 1.5 1.3125 3 3 C3 3.99 3 4.98 3 6 C-2.94 6 -8.88 6 -15 6 C-15 5.67 -15 5.34 -15 5 C-10.05 5 -5.1 5 0 5 C0 3.35 0 1.7 0 0 Z " transform="translate(228,186)"/>
<path d="M0 0 C0 0.66 0 1.32 0 2 C-0.66 2 -1.32 2 -2 2 C-2.0825 2.556875 -2.165 3.11375 -2.25 3.6875 C-3.22610013 6.69714206 -4.95188814 8.62154752 -7 11 C-5.94230769 0 -5.94230769 0 0 0 Z " transform="translate(167,151)"/>
<path d="M0 0 C0.99 0 1.98 0 3 0 C5.31841982 2.57602202 6.93313289 4.58807531 7.1015625 8.14453125 C6.875 10.3125 6.875 10.3125 6 14 C5.01 14.495 5.01 14.495 4 15 C3.67 14.01 3.34 13.02 3 12 C3.4125 11.2575 3.825 10.515 4.25 9.75 C5.31195363 7.08104868 5.31195363 7.08104868 4.0234375 5.12109375 C2.7433752 3.35117521 1.4228335 1.65678935 0 0 Z " transform="translate(111,128)"/>
<path d="M0 0 C3.33633368 2.99119571 5.24527707 5.87640111 7 10 C7 10.99 7 11.98 7 13 C2.18602057 8.94612259 1.11458074 5.9782058 0 0 Z " transform="translate(94,106)"/>
<path d="M0 0 C2.33524782 2.25740623 4.18705073 4.2805761 6 7 C6 8.32 6 9.64 6 11 C5.34 11 4.68 11 4 11 C0 4.5 0 4.5 0 0 Z " transform="translate(143,39)"/>
<path d="M0 0 C2.61500768 2.36595933 4.38999603 4.86049226 6 8 C5.67 8.66 5.34 9.32 5 10 C3 8.6875 3 8.6875 1 7 C1 6.01 1 5.02 1 4 C0.34 4 -0.32 4 -1 4 C-0.67 2.68 -0.34 1.36 0 0 Z " transform="translate(220,172)"/>
<path d="M0 0 C0.33 0 0.66 0 1 0 C1.63175608 5.18039987 0.25817319 7.66878358 -2.7109375 11.6796875 C-3.13632813 12.11539063 -3.56171875 12.55109375 -4 13 C-4.66 13 -5.32 13 -6 13 C-5.02983736 10.08951208 -3.82201105 7.54602182 -2.4375 4.8125 C-1.98246094 3.91144531 -1.52742187 3.01039063 -1.05859375 2.08203125 C-0.70925781 1.39496094 -0.35992187 0.70789063 0 0 Z " transform="translate(130,144)"/>
<path d="M0 0 C3 1 3 1 4.25 2.8125 C5.11637742 5.33943414 4.88492145 6.52221994 4 9 C1 5.25 1 5.25 1 3 C-0.32 2.67 -1.64 2.34 -3 2 C-2.01 1.34 -1.02 0.68 0 0 Z " transform="translate(61,114)"/>
<path d="M0 0 C0.99 0 1.98 0 3 0 C3.33 1.32 3.66 2.64 4 4 C3.01 3.67 2.02 3.34 1 3 C1 3.66 1 4.32 1 5 C0.34 5 -0.32 5 -1 5 C-1 5.66 -1 6.32 -1 7 C-1.99 7 -2.98 7 -4 7 C-3.67 5.68 -3.34 4.36 -3 3 C-2.34 3 -1.68 3 -1 3 C-0.67 2.01 -0.34 1.02 0 0 Z " transform="translate(60,119)"/>
<path d="M0 0 C0.66 0 1.32 0 2 0 C1.8125 2.375 1.8125 2.375 1 5 C-1.1875 6.125 -1.1875 6.125 -4 7 C-6.00751815 7.98482022 -8.00934459 8.98152514 -10 10 C-8.88829667 6.77606034 -8.10649159 6.05546437 -5 4.4375 C-4.01 3.963125 -3.02 3.48875 -2 3 C-1.34 2.01 -0.68 1.02 0 0 Z " transform="translate(153,64)"/>
<path d="M0 0 C0.66 1.32 1.32 2.64 2 4 C2.66 3.67 3.32 3.34 4 3 C2.77263971 7.15414253 1.672336 9.43688534 -1 13 C-0.67 8.71 -0.34 4.42 0 0 Z " transform="translate(126,142)"/>
<path d="M0 0 C3.35661695 1.67830848 4.32506861 4.70789347 6 8 C5.67 8.66 5.34 9.32 5 10 C2.525 9.01 2.525 9.01 0 8 C0 5.36 0 2.72 0 0 Z " transform="translate(200,142)"/>
<path d="M0 0 C0.99 0.33 1.98 0.66 3 1 C0.69 4.63 -1.62 8.26 -4 12 C-5.39195915 7.82412255 -3.82323219 5.86525224 -2 2 C-1.34 2 -0.68 2 0 2 C0 1.34 0 0.68 0 0 Z " transform="translate(145,120)"/>
<path d="M0 0 C0.66 0.66 1.32 1.32 2 2 C1.21625 2.9075 0.4325 3.815 -0.375 4.75 C-2.30052496 7.05190236 -3.82205741 9.21577207 -5 12 C-5.6875 9.75 -5.6875 9.75 -6 7 C-4.6875 4.6875 -4.6875 4.6875 -3 3 C-2.34 3 -1.68 3 -1 3 C-0.67 2.01 -0.34 1.02 0 0 Z " transform="translate(136,60)"/>
<path d="M0 0 C1.32 0 2.64 0 4 0 C4 2 4 2 2.625 3.625 C1 5 1 5 -1 5 C-1.33 6.32 -1.66 7.64 -2 9 C-2.66 9 -3.32 9 -4 9 C-2.94124926 5.59687262 -1.99097846 2.98646769 0 0 Z " transform="translate(58,117)"/>
<path d="M0 0 C4.63714903 1.46436285 4.63714903 1.46436285 6.3125 3.9375 C7 6 7 6 7 9 C4 8 4 8 2.83203125 6.15234375 C2.49558594 5.42144531 2.15914062 4.69054687 1.8125 3.9375 C1.46832031 3.20402344 1.12414062 2.47054687 0.76953125 1.71484375 C0.51558594 1.14894531 0.26164063 0.58304687 0 0 Z " transform="translate(190,124)"/>
<path d="M0 0 C1.2065625 0.0309375 1.2065625 0.0309375 2.4375 0.0625 C1.48328192 1.21176266 0.52397955 2.35680541 -0.4375 3.5 C-0.97117188 4.13808594 -1.50484375 4.77617188 -2.0546875 5.43359375 C-3.5625 7.0625 -3.5625 7.0625 -5.5625 8.0625 C-3.38616071 0.08258929 -3.38616071 0.08258929 0 0 Z " transform="translate(149.5625,91.9375)"/>
<path d="M0 0 C2.1385485 2.1385485 2.42655063 3.13275314 3 6 C2.01 6 1.02 6 0 6 C-0.66 7.32 -1.32 8.64 -2 10 C-2.6875 8.375 -2.6875 8.375 -3 6 C-1.5625 2.75 -1.5625 2.75 0 0 Z " transform="translate(84,76)"/>
<path d="M0 0 C0.66 0 1.32 0 2 0 C2 1.98 2 3.96 2 6 C0.35 6.66 -1.3 7.32 -3 8 C-2.45276317 4.62537285 -1.9451 2.91765 0 0 Z " transform="translate(119,11)"/>
<path d="M0 0 C0.99 0.33 1.98 0.66 3 1 C2.67 5.29 2.34 9.58 2 14 C-1 10 -1 10 -1.07421875 7.421875 C-0.94660156 6.54015625 -0.81898437 5.6584375 -0.6875 4.75 C-0.56761719 3.85796875 -0.44773437 2.9659375 -0.32421875 2.046875 C-0.21722656 1.37140625 -0.11023438 0.6959375 0 0 Z " transform="translate(117,133)"/>
<path d="M0 0 C0.66 0.33 1.32 0.66 2 1 C1.67 1.99 1.34 2.98 1 4 C0.34 4 -0.32 4 -1 4 C-2.70680947 5.62553283 -4.37660195 7.29115995 -6 9 C-6.66 8.67 -7.32 8.34 -8 8 C-5.36 5.36 -2.72 2.72 0 0 Z " transform="translate(154,61)"/>
<path d="M0 0 C0.99 0 1.98 0 3 0 C3 0.99 3 1.98 3 3 C3.928125 3.12375 3.928125 3.12375 4.875 3.25 C7 4 7 4 8.25 6.0625 C8.4975 6.701875 8.745 7.34125 9 8 C6.50638429 6.79618552 4.31856917 5.54571278 2 4 C2 3.34 2 2.68 2 2 C1.34 2 0.68 2 0 2 C0 1.34 0 0.68 0 0 Z " transform="translate(101,119)"/>
<path d="M0 0 C0.33 2.64 0.66 5.28 1 8 C0.34 7.67 -0.32 7.34 -1 7 C-1 6.01 -1 5.02 -1 4 C-2.65 4 -4.3 4 -6 4 C-2.25 0 -2.25 0 0 0 Z " transform="translate(143,37)"/>
<path d="M0 0 C2.96865509 2.54456151 4.3619751 5.48994665 6 9 C5.01 9.495 5.01 9.495 4 10 C4 9.01 4 8.02 4 7 C3.01 7 2.02 7 1 7 C0.67 4.69 0.34 2.38 0 0 Z " transform="translate(208,157)"/>
<path d="M0 0 C-0.49831724 3.68754757 -1.10067643 5.60490662 -4 8 C-4.6875 5.6875 -4.6875 5.6875 -5 3 C-3.40083326 0.79162689 -2.76966516 0 0 0 Z " transform="translate(156,105)"/>
<path d="M0 0 C3.16115776 1.36983503 3.9927092 1.9890638 6 5 C6 5.99 6 6.98 6 8 C5.01 8 4.02 8 3 8 C0 2.25 0 2.25 0 0 Z " transform="translate(130,19)"/>
<path d="M0 0 C0.33 0 0.66 0 1 0 C1.25 2.25 1.25 2.25 1 5 C-1 7.3125 -1 7.3125 -3 9 C-3.33 8.34 -3.66 7.68 -4 7 C-3.22265625 5.2734375 -3.22265625 5.2734375 -2.0625 3.375 C-1.381875 2.26125 -0.70125 1.1475 0 0 Z " transform="translate(159,159)"/>
<path d="M0 0 C2.5625 2.25 2.5625 2.25 5 5 C4.8125 7.3125 4.8125 7.3125 4 9 C3.34 8.34 2.68 7.68 2 7 C2 5.68 2 4.36 2 3 C1.01 2.67 0.02 2.34 -1 2 C-0.67 1.34 -0.34 0.68 0 0 Z " transform="translate(78,149)"/>
<path d="M0 0 C0.99 0.33 1.98 0.66 3 1 C1.6875 3.9375 1.6875 3.9375 0 7 C-0.99 7.33 -1.98 7.66 -3 8 C-1.125 2.25 -1.125 2.25 0 0 Z " transform="translate(44,141)"/>
<path d="M0 0 C0.33 0 0.66 0 1 0 C1.3125 2.1875 1.3125 2.1875 1 5 C-1.5 7.8125 -1.5 7.8125 -4 10 C-4.66 9.67 -5.32 9.34 -6 9 C-5.525625 8.566875 -5.05125 8.13375 -4.5625 7.6875 C-2.76313043 5.97690387 -2.76313043 5.97690387 -2 3 C-1.34 3 -0.68 3 0 3 C0 2.01 0 1.02 0 0 Z " transform="translate(118,18)"/>
<path d="M0 0 C0.99 0.33 1.98 0.66 3 1 C4.1875 4.0625 4.1875 4.0625 5 7 C3.0625 6.3125 3.0625 6.3125 1 5 C0.25 2.375 0.25 2.375 0 0 Z " transform="translate(65,122)"/>
<path d="M0 0 C4 4.75 4 4.75 4 7 C3.01 7 2.02 7 1 7 C1 6.01 1 5.02 1 4 C0.01 4 -0.98 4 -2 4 C-1.34 2.68 -0.68 1.36 0 0 Z " transform="translate(186,117)"/>
<path d="M0 0 C1.32 0.66 2.64 1.32 4 2 C4 2.66 4 3.32 4 4 C3.01 4 2.02 4 1 4 C0.67 4.66 0.34 5.32 0 6 C-1 3 -1 3 0 0 Z " transform="translate(160,76)"/>
<path d="M0 0 C0.66 0 1.32 0 2 0 C1.40072174 3.35595828 0.15377564 5.37801226 -2 8 C-1.125 1.125 -1.125 1.125 0 0 Z " transform="translate(82,76)"/>
<path d="M0 0 C1.32 1.32 2.64 2.64 4 4 C3.67 4.66 3.34 5.32 3 6 C2.01 5.34 1.02 4.68 0 4 C0 4.66 0 5.32 0 6 C-0.66 6 -1.32 6 -2 6 C-1.34 4.02 -0.68 2.04 0 0 Z " transform="translate(102,45)"/>
</svg>
